<svg width="24" height="24" viewBox="0 0 24 24" fill="none" xmlns="http://www.w3.org/2000/svg">
<path fill-rule="evenodd" clip-rule="evenodd" d="M18.7118 6.70568C19.1013 6.31615 19.1013 5.6846 18.7118 5.29508C18.3222 4.90555 17.6907 4.90555 17.3012 5.29508L12.0039 10.5923L6.70665 5.29507C6.31712 4.90555 5.68558 4.90555 5.29605 5.29507C4.90652 5.6846 4.90652 6.31615 5.29605 6.70568L10.5933 12.0029L5.29605 17.3002C4.90652 17.6897 4.90652 18.3213 5.29605 18.7108C5.68558 19.1003 6.31712 19.1003 6.70665 18.7108L12.0039 13.4135L17.3012 18.7108C17.6907 19.1003 18.3222 19.1003 18.7118 18.7108C19.1013 18.3213 19.1013 17.6897 18.7118 17.3002L13.4145 12.0029L18.7118 6.70568Z" fill="#191C1E"/>
</svg>
